<?xml version="1.0" encoding="UTF-8"?><svg xmlns="http://www.w3.org/2000/svg" viewBox="0 0 432 432"><defs><style>.cls-1{fill:none;stroke:#fff;stroke-linecap:round;stroke-miterlimit:10;stroke-width:1.5px;}.cls-2{fill:#078c45;}.cls-2,.cls-3,.cls-4,.cls-5{stroke-width:0px;}.cls-3{fill:#000;}.cls-4{fill:#69bc45;}.cls-5{fill:#231f20;}</style></defs><g id="Layer_3"><path class="cls-2" d="M305.02,255.34c-.37,2.31-1.04,4.14-3.18,7.71-.03-3.19.07-5.75.19-7.57.15-2.43.3-3.58,0-5.47-.25-1.55-.58-2.16-.73-3.84-.17-1.89.06-3.2.18-4.19.2-1.75-.03-1.98-1.1-10.04-.86-6.54-.71-6.44-1.09-7.49-1.01-2.77-2.41-4.44-1.64-5.66.51-.8,1.73-1.03,2.55-.91,2.09.3,3.86,3.11,4.21,7.05.84,2.51,1.68,5.04,2.52,7.56h.03c.48,1.36.96,3.01,1.27,4.92.23,1.41.34,2.7.37,3.84l.37.23c.14,1.92.28,3.85.41,5.77l.23.15c-1.37,2.08-2.98,4.74-4.59,7.94Z"/><path class="cls-2" d="M359.49,200.61l.08.28c-1.88.56-3.14.31-3.96-.04-1.32-.56-1.79-1.53-3.25-1.75-.99-.14-1.65.18-2.37.38-1.33.36-3.31.47-6.2-.73,1.33-.79,3.42-2.02,6.02-3.47,5.93-3.32,6.82-3.53,8.34-5.1,2.28-2.35,3.3-5.01,4.4-7.88,1.65-4.28.83-4.74,2.32-7.18,2.01-3.29,3.81-2.94,5.56-6.25.78-1.48.76-2.2,1.62-6.25.44-2.07,1.11-5.02,2.08-8.57.11-1.84.5-4.59,1.83-7.64,1.72-3.94,4.2-6.5,5.72-7.84-.11,1.67-.19,3.45-.19,5.2-.01,5.24.66,5.46.92,10.85.22,4.59.56,11.52-1.85,18.25-1.12,3.16-3.54,6.31-8.31,12.48-5.53,7.14-9.12,11.77-12.76,15.26Z"/><path class="cls-2" d="M375.41,97.36c-.16,1.78-.95,3.03-1.33,3.55h-.46c0,.47-.03,1.01-.08,1.58-.6,6.22-3.96,7.21-6.83,14.97-1.01,2.72-1.36,4.65-3.35,6.4-1.36,1.19-1.79.81-3.92,2.18,2.08-4.28,2.74-8.03,2.96-10.49.16-1.79.32-3.67-.15-6.06-.56-2.95-1.96-5.16-4.73-9.47-2.29-3.57-4.26-6.59-5.32-6.21-.46.17-.47.87-.89,2.81,0,0-.57,2.66-1.48,5.32-1.46,4.29-4.51,6.86-5.17,7.4-1.62,1.32-3.21,2.06-4.3,2.49,2.24-4.05,3.78-7.51,4.75-9.9,2.48-6.03,4.01-11.6,4.99-16.5,3.39,2.97,7.39,7,11.28,12.22.55.74,1.07,1.47,1.57,2.19l.29-.2c1.9-.32,4.63-1,7.62-2.54.86-.44,2.39-1.29,4.19-2.7.24.69.47,1.72.36,2.96Z"/><path class="cls-2" d="M344.45,80.73c1.52,1.11,2.93,2.22,4.22,3.3l-.12.14c-.42,2.14-.92,4.42-1.51,6.83h-.02c-.86,2.28-2.35,5.65-4.88,9.32-3.13,4.54-6.34,7.32-10.35,10.79-2.97,2.57-5.47,4.72-9.31,6.95-3.56,2.06-6.78,3.34-9.17,4.14.29-2.5.59-5.01.89-7.51,4.07-1.8,9.29-4.87,13.99-10.02,6.02-6.6,8.2-13.35,10.04-19.09.67-2.07,1.39-4.67,2-7.74,1.35.87,2.77,1.82,4.22,2.89Z"/><path class="cls-2" d="M311.37,215.42c.53-.62,1.76.06,3.7.01,2.7-.08,3.93-1.55,7.18-3.24,1.56-.82,3.87-1.84,6.95-2.55,3.18-1.67,5.9-3.07,8.02-4.15,2.31-1.18,4.37-2.21,4.72-1.76.15.2-.04.6-.37,1.11-1.41,2.19-3.37,3.18-6.2,4.91-2.82,1.72-2.51,1.74-4.53,2.87-1.97,1.09-1.94.89-4.63,2.31-3.56,1.87-3.25,2.03-5.64,3.14-2.05.96-2.46.93-2.87,1.58-.84,1.34.24,2.54.1,5.64-.04.68-.18,3.77-1.3,4.07-.78.21-1.35-1.15-3.42-3.24-2.73-2.74-3.97-2.62-5.74-5.09-.89-1.24-1.97-2.75-1.48-3.97.53-1.3,2.7-1.98,5.51-1.64Z"/><path class="cls-2" d="M297.27,269.86l.16.11c-13.2,20.07-18.55,25.45-20.82,27.65-3.83,3.7-6.48,5.66-9.7,7.16-3.04,1.41-4.29,1.36-8.78,2.5l-.07-.27c1.32-.55,2.19-1.72,2.25-3,.01-.19.06-1.73-.86-2.25-1.18-.67-2.51,1.21-5.03,1.29-.94.03-1.31-.22-3.53-1.07-5.01-1.93-7.51-2.89-9.52-3.1-1.71-.19-3.05-.07-3.85-1.07-.59-.74-.6-1.72-.51-2.47.98-.32,2.5-.74,4.4-.92,4.22-.42,6.21.72,9.73,1.15,1.38.17,7.86.98,12.97-2.31,2.27-1.47,2.15-2.38,6.71-7.18,2.44-2.56,4.58-4.52,6.03-5.79,2.16.12,5.41,0,9.03-1.32,6.05-2.2,9.64-6.51,11.39-9.11Z"/><path class="cls-2" d="M292.34,202.96l-.04.02c-.99.9-1.71,1.68-2.22,2.43-2.21,3.27-2.29,5.22-4.91,10.07-.78-7.22-3.12-19.16-10.85-31.42-3.95-6.26-8.3-11.02-12.04-14.49l.04-.07c19.33,11.94,28.11,29.44,30.02,33.46Z"/><path class="cls-2" d="M221.67,152.23c-.9-8.33-.92-20.93,4.12-34.88.39-1.06.99-2.64,1.86-4.61l.34.15c-1.06,4.65-1.15,8.49-1.04,11.09.17,3.86,1.64,8.58,4.59,18.04,1.03,3.3,2.04,6.34,4.43,9.61,1.16,1.58,2.39,3.22,4.59,4.43,2.41,1.33,3.29.66,6.8,1.93,2.46.88,4.11,1.97,6.51,3.54,1.67,1.1,3.78,2.65,6.06,4.74l.36.18c-.27.53-.49,1.02-.66,1.46-4.04-2.26-8.49-4.27-13.41-5.89-1.58-.51-10.86-3.4-23.61-3.48v-.06c-.31-1.65-.66-3.76-.94-6.25Z"/><path class="cls-2" d="M226.07,322.42v.02c-2.62,1.83-3.82,2.84-7.44,4.98-4.1,2.41-8.4,4.95-14.56,7.16-4.01,1.44-6.41,1.87-11.78,4.16-3.19,1.36-5.16,2.21-7.39,3.69-4.16,2.78-5.63,5.35-8.78,9.01-1.76,2.05-7.14,8.22-14.55,12.48-2.36,1.35-6.53,3.04-15.02,5.54-12.86,3.78-10.87,3.83-16.17,5.08-12.12,2.86-22.04,2.49-25.18,2.31-8.95-.49-15.31-2.27-22.87-4.39-8.46-2.36-12.78-3.61-17.56-6.93-1.91-1.33-3.58-2.76-5.04-4.21l.06-.06c5.06,3.25,9.43,4.77,12.52,5.56,2.68.68,3.44.57,7.92,1.6,6.2,1.43,6.76,2.11,10.81,3,7.82,1.72,14.84,1.2,14.87.86,0-.08-.36-.14-3.32-.75-5.99-1.25-5.87-1.29-6.84-1.39-4.36-.47-4.15.27-5.89-.43-2.57-1.04-1.98-2.49-5.78-4.92-.91-.59-1.93-1.25-3.96-2.57-1.56-1.02-2.33-1.53-2.24-1.93.13-.58,1.86-.72,2.99-.64,1,.07,2.91.42,5.03,2.25l.19-.19c.79.77,1.91,1.58,3.37,1.96,2.66.7,3.71-.76,6.48-.23,2.7.52,3,2.16,6.02,3.24,2.38.86,4.59.7,6.03.47.42.13,1.1.35,1.88.74,1.94.96,2.92,1.9,3.96,2.67.14.11,2.97,2.46,6.31,2.57,1.13.04,2.54-.43,5.35-1.39,2.1-.71,2.71-1.09,4.6-1.6,1.93-.52,3.38-.69,3.85-.75,3.68-.5,13.81-3.61,22.9-10.49,3.52-2.66,6.96-5.95,8.24-7.17,1.66-1.59,2.29-2.27,4.82-4.7,3.52-3.4,4.99-4.62,6.31-5.89,4.79-4.6,7.47-9.51,8.99-12.3,3.71-6.83,5.5-13.52,5.88-14.98.76-2.93,1.18-5.39,1.61-5.35.54.05,1.51,4.25.53,8.56-.31,1.36-.89,3.06-.32,3.42.54.34,1.52-.89,2.89-.64.79.14.86.74,1.71,1.17.56.28,1.38.49,2.61.23-.19,1.13-.36,2.25-.55,3.38l.19.03c1.98.53,4.24.97,6.74,1.18,8.47.7,15.4-1.58,19.58-3.42Z"/><path class="cls-2" d="M207.94,310.55c.61-1.5,1.33-2.05,1.96-2.24,1.41-.4,2.41,1.02,4.41,1.16,1.62.11,3-.68,3.93-1.39,2.29-1.38,4.22-1.87,4.83-1.18.52.57.09,1.93-.53,2.78-.94,1.28-2.45,1.58-4.82,2.04-2.56.49-3.85.74-5.45.74-.58,0-1.14-.02-1.71.33-1.08.64-.96,1.84-1.72,2.78-.52.65-1.59,1.35-4.06,1.28.1-.83.32-1.96.85-3.21.63-1.46,1.43-2.53,2.04-3.21l.27.12Z"/><path class="cls-2" d="M222.61,158.48v.06c-2.89-.02-5.97.11-9.17.44v-.09c.57-1.04,1.67-2.69,3.55-4.18,1.78-1.42,3.53-2.13,4.68-2.48.28,2.49.63,4.6.94,6.25Z"/><path class="cls-2" d="M210.98,277.09c4.42,1.69,8.39,1.91,10.89,1.86-2.05,3.09-4.17,5.04-4.71,5.53-1.01.91-4.49,3.91-10.04,5.73-5.05,1.67-6.34.55-10.71,2.41-.26-6.2-2.13-35.37-25.85-56.93-4.88-4.44-10.36-8.25-16.26-11.35l.02-.09c12.39,2.39,19.38,7.83,22.8,11.08,5.45,5.19,9.42,12.07,11.96,16.48,4.41,7.64,4.09,9.43,8.13,14.45,2.52,3.13,6.62,8.1,13.77,10.83Z"/><path class="cls-2" d="M148.51,212.42l.08.17c-1.1,3.43-1.7,6.11-2.01,7.61l-.2.5c-2.09-.82-4.21-1.56-6.37-2.21.97-1.01,2.2-2.14,3.71-3.24,1.73-1.26,3.38-2.18,4.79-2.83Z"/><path class="cls-2" d="M117.58,335.35c-.44.19-.9.38-1.38.58-4.95,2.05-4.5,1.61-8.18,3.21-8.83,3.84-8.92,5.25-15.28,7.74-4.62,1.81-8.89,2.75-14.44,3.98-6.14,1.35-7.44,1.21-10.47,2.72-2.11,1.06-3.53,2.16-6.17,2.41-.98.09-3.63.34-5.96-1.26-2.34-1.6-3.01-4.15-3.46-5.86-1.41-5.4.49-10.19,1.47-12.24l.32-.22c-7.72-11.23-15.24-27.7-14.06-48.42,1.02-18.05,8.38-34.78,20.05-47.66-4.72,8.18-19.12,35.45-13.94,63.84,2.95,16.13,11.33,27.8,15.74,31.74,3.99,3.56,8.89,5.59,8.89,5.59,1.93.79,4.37,1.78,7.62,1.77,2.91,0,5.05-.8,6.34-1.27,4.93-1.79,10-3.19,14.98-4.82,4.04-1.32,9.94-2.52,17.93-1.83Z"/></g><g id="Layer_2"><path class="cls-4" d="M242.55,116.75c.62,4.69,1.25,9.12,1.91,13.63.31,2.12.73,4.78,2.87,6.75.36.33,1.89,1.68,3.71,1.85,3.42.33,7.53-3.53,9.28-9.78-3.76-2.12-7.88-4.73-12.15-7.93-2.01-1.5-3.87-3.02-5.62-4.52ZM300.64,93.07c-2.99,5.82-5.19,9.51-8.77,16.05-1.96,3.58-4.86,8.95-8.27,15.69,1.97.92,5.68,2.34,10.46,2.19,2.94-.08,7.32-.22,10.12-3.2.91-.97,2.62-3.27,2.36-10.29-.16-4.32-1.11-11.72-5.9-20.44ZM264.12,162.2c-.72.66-1.57,1.55-2.37,2.7-.44.62-.8,1.24-1.1,1.81l-.36-.19c-.28-.26-.57-.51-.84-.76-1.95-1.71-3.76-3.01-5.22-3.97-2.4-1.58-4.04-2.66-6.5-3.55-3.52-1.27-4.4-.6-6.81-1.92-2.19-1.21-3.42-2.85-4.58-4.44-2.39-3.27-3.41-6.31-4.44-9.61-2.94-9.45-4.41-14.18-4.58-18.04-.11-2.6-.03-6.44,1.03-11.09l-.34-.15c3.86-8.73,13.01-24.97,31.96-35.91,27.51-15.87,55.06-8.64,60.65-7h0c-3.4,15.5-6.8,30.98-10.2,46.46,1.02-.33,2.25-.78,3.63-1.37l.47.06c-.27,2.41-.56,4.81-.85,7.23,2.39-.8,5.62-2.08,9.17-4.14,3.84-2.23,6.35-4.38,9.32-6.95,4-3.47,7.21-6.25,10.35-10.8,2.53-3.66,4.02-7.04,4.88-9.31h.01c-1.51,6.17-3.64,13.19-6.68,20.82,1.09-.42,2.68-1.17,4.3-2.49.66-.53,3.71-3.11,5.18-7.39.91-2.67,1.48-5.32,1.48-5.32.41-1.95.42-2.65.88-2.81,1.06-.38,3.03,2.64,5.33,6.21,2.76,4.31,4.16,6.52,4.73,9.46.46,2.4.31,4.27.15,6.06-.23,2.47-.88,6.22-2.97,10.49-3.12,2-4.91,4.56-6.39,6.69-1.48,2.11-2.3,3.84-2.47,4.21-1.38,2.94-1.45,4.52-2.04,6.11-1.37,3.74-4.56,4.87-8.72,7.85-3.52,2.52-6.13,5.21-8.03,7.46l-.04-.03c-.89-2.4-1.74-5.03-2.48-7.88-1.56-6.01-2.24-11.51-2.48-16.19-1.22,5.08-2.44,10.14-3.67,15.22-2.77-.29-5.54-.58-8.3-.88-.1,3.72-.2,7.43-.31,11.15-1.48-.02-3.49-.21-5.76-.91-2.62-.81-4.61-2.01-5.93-2.98-.23,1.85-.47,3.71-.72,5.6-.36,2.65-.74,5.25-1.12,7.81-2.53-1.49-5.26-3.31-8.06-5.53-1.54-1.21-2.94-2.42-4.23-3.61h-.01c-.04,1.73-.17,3.66-.47,5.75-.27,1.94-.64,3.71-1.04,5.28l-.19.28c-2.14-1.39-4.48-3.09-6.9-5.18-2.16-1.86-4-3.7-5.56-5.42l-.15-.03c-.63,2.8-1.26,5.59-1.9,8.38-1.8-1.1-3.83-2.53-5.89-4.4-1.06-.96-2-1.93-2.82-2.84Z"/><path class="cls-4" d="M322.61,212.44c-3.24,1.7-4.47,3.17-7.18,3.24-1.94.06-3.18-.64-3.7,0-2.8-.34-4.98.34-5.5,1.63-.49,1.22.59,2.73,1.48,3.98,1.76,2.47,3.01,2.35,5.73,5.09,2.08,2.08,2.64,3.44,3.43,3.23,1.11-.29,1.26-3.38,1.29-4.07.15-3.09-.94-4.29-.09-5.64.41-.65.81-.62,2.87-1.57,2.39-1.11,2.07-1.27,5.64-3.15,2.69-1.41,2.66-1.21,4.62-2.31,2.02-1.12,1.72-1.15,4.54-2.87s4.79-2.71,6.19-4.9c.33-.51.52-.92.37-1.11-.35-.46-2.4.58-4.71,1.76-2.12,1.08-4.84,2.48-8.03,4.14-3.08.72-5.38,1.73-6.95,2.55ZM218.61,308.34c-.93.7-2.32,1.5-3.94,1.39-1.99-.14-3-1.56-4.4-1.16-.63.18-1.35.73-1.96,2.24l-.28-.12c-.6.68-1.41,1.74-2.03,3.21-.53,1.25-.76,2.38-.86,3.21,2.47.06,3.55-.63,4.07-1.29.75-.94.63-2.13,1.71-2.78.58-.35,1.13-.32,1.71-.32,1.61,0,2.89-.25,5.46-.75,2.37-.46,3.88-.75,4.81-2.03.63-.85,1.05-2.21.54-2.78-.62-.69-2.54-.2-4.83,1.18ZM309.75,247.51c-.14-1.93-.28-3.85-.41-5.78l-.03-.02s.01-.01.01-.02l-.36-.19c-.03-1.14-.13-2.43-.36-3.83-.26-1.56-.62-2.96-1.02-4.16h-.02c-.93-2.77-1.86-5.55-2.78-8.33-.35-3.94-2.12-6.74-4.21-7.04-.83-.12-2.05.1-2.56.91-.77,1.22.64,2.89,1.64,5.66.38,1.04.24.95,1.1,7.48,1.06,8.06,1.3,8.29,1.09,10.04-.11,1-.35,2.3-.18,4.2.15,1.67.48,2.28.73,3.83.31,1.9.15,3.04,0,5.48-.11,1.81-.21,4.37-.18,7.55-1.02,1.72-2.39,3.85-4.21,6.63-.07.1-.13.2-.2.3l-.16-.1c-1.75,2.59-5.34,6.91-11.39,9.11-3.62,1.32-6.88,1.43-9.04,1.31-1.45,1.27-3.59,3.23-6.02,5.79-4.56,4.8-4.44,5.72-6.72,7.18-5.1,3.29-11.59,2.49-12.97,2.32-3.51-.44-5.51-1.57-9.73-1.16-1.89.19-3.42.61-4.4.93-.09.74-.07,1.73.51,2.46.81,1.01,2.14.89,3.86,1.07,2,.22,4.51,1.18,9.52,3.1,2.21.85,2.58,1.1,3.53,1.07,2.51-.07,3.84-1.95,5.03-1.28.92.52.86,2.06.85,2.25-.05,1.28-.92,2.44-2.24,2.99l.07.28c-.98.25-2.12.56-3.47.96-3.67,1.08-7.82,2.32-12.71,4.62-3.13,1.47-5.36,2.85-9.7,5.54-3.15,1.96-5.07,3.26-6.55,4.29l-.07-.09c-.14.06-.28.12-.43.18-.13.05-.26.11-.39.16-.12.05-.25.1-.37.15-4.25,1.67-10.5,3.37-17.96,2.75-2.49-.21-4.75-.65-6.74-1.18l-.18-.03c.18-1.13.36-2.25.54-3.38-1.23.25-2.05.05-2.6-.23-.86-.43-.93-1.04-1.72-1.18-1.36-.24-2.34.99-2.88.65-.57-.37.01-2.06.32-3.43.98-4.31,0-8.51-.54-8.56-.43-.04-.84,2.42-1.6,5.35-.38,1.47-2.17,8.15-5.89,14.98-1.52,2.79-4.19,7.71-8.99,12.31-1.32,1.26-2.78,2.49-6.31,5.88-2.53,2.43-3.15,3.12-4.81,4.71-1.28,1.22-4.72,4.5-8.24,7.17-9.1,6.88-19.22,9.99-22.9,10.48-.47.07-1.93.23-3.85.75-1.9.51-2.5.9-4.6,1.61-2.82.95-4.22,1.43-5.35,1.39-3.35-.12-6.17-2.46-6.32-2.57-1.04-.77-2.01-1.72-3.96-2.67-.78-.39-1.46-.62-1.88-.75-1.43.24-3.65.39-6.02-.46-3.02-1.08-3.32-2.72-6.02-3.24-2.78-.54-3.82.93-6.49.23-1.46-.38-2.58-1.2-3.37-1.96l-.18.18c-2.13-1.83-4.04-2.17-5.03-2.24-1.13-.08-2.86.05-3,.64-.09.39.69.91,2.25,1.93,2.03,1.32,3.04,1.98,3.96,2.56,3.79,2.43,3.21,3.89,5.78,4.93,1.74.7,1.53-.05,5.88.42.98.11.86.15,6.85,1.39,3,.63,3.32.68,3.32.75-.03.35-7.06.87-14.88-.85-4.04-.89-4.6-1.57-10.8-3-4.48-1.03-5.25-.92-7.92-1.6-2.72-.7-6.42-1.96-10.72-4.46-.84-.67-1.71-1.41-2.57-2.25-2.69-2.6-4.6-5.31-5.95-7.66l.39-.22c.05.09.1.18.16.27.39.66.89,1.29,1.55,1.83.16.14.34.27.52.4,2.33,1.6,4.99,1.35,5.97,1.25,2.63-.25,4.06-1.35,6.17-2.4,3.02-1.52,4.33-1.37,10.46-2.72,5.56-1.23,9.82-2.17,14.44-3.98,6.37-2.49,6.45-3.91,15.29-7.74,3.68-1.6,3.23-1.16,8.18-3.22.47-.19.92-.38,1.35-.57h0c.17-.07.34-.15.51-.22,4.3-1.84,6.95-3.23,13.91-6.51,7.04-3.32,10.55-4.99,12.26-5.64,5.86-2.25,8.63-2.6,11.77-3.39,1.76-.44,3.64-1.02,6.25-2.14,4.54-1.95,8.18-4.23,10.6-5.93,1.1-.76,1.95-1.41,2.51-1.85,4.81-3.77,6.22-6.13,14.13-12.5,3.33-2.67,4.86-3.69,6.91-4.56,4.36-1.86,5.65-.74,10.71-2.4,5.54-1.83,9.03-4.83,10.04-5.74.54-.48,2.65-2.44,4.71-5.53,2.2-3.31,2-4.44,3.89-7.17,2.1-3.03,4.51-4.77,6.14-5.94,4.39-3.11,6.28-2.56,10.86-4.91,3.13-1.61,5.75-4.1,10.86-9.01,3.98-3.84,4.37-4.54,10.44-10.86,8.65-9,11.74-11.6,16.18-17.82.76-1.06,1.9-2.66,3.28-4.92.63-1.02,1.16-1.94,1.6-2.77.02-.03.04-.05.05-.08h0c.12-.22.23-.43.33-.63l.09-.18c.15-.27.28-.53.41-.79.53-1.09.94-2.01,1.29-2.85.08-.19.16-.38.23-.56.74-1.77,1.3-3.2,2.55-5.04.07-.1.15-.21.22-.31.07-.09.14-.17.21-.26.15-.19.32-.39.51-.59.09-.1.19-.2.29-.31.3-.31.63-.63,1-.96,2-1.81,5.09-4.07,9.72-7.47,3.49-2.56,6.85-5.29,10.32-7.85,1.24-.92,3.79-2.79,5.82-6.11.81-1.33,1.25-2.41,1.45-2.9,1.81-4.39,5.69-11.79,9.59-17.01.66-.88,1.51-2.02,2.58-3.29,1.9-2.25,4.51-4.94,8.03-7.46,4.16-2.98,7.35-4.11,8.72-7.85.59-1.59.66-3.17,2.04-6.11.17-.37.99-2.1,2.47-4.21,1.48-2.13,3.27-4.69,6.39-6.69,2.13-1.36,2.57-.98,3.93-2.18,1.99-1.75,2.34-3.67,3.34-6.39,2.87-7.77,6.23-8.76,6.83-14.97.05-.58.08-1.12.08-1.6h.47c.38-.51,1.17-1.75,1.33-3.53.11-1.24-.12-2.27-.36-2.96h0c.21-.17.44-.36.66-.54,3.58-2.98,4.26-5.02,8.08-10.16,2.57-3.45,5.97-7.5,10.86-11.09,4.27-3.13,5.49-2.84,6.01-2.54,1.52.89,1.28,4.44.46,6.93-1.07,3.24-2.92,4.04-7.63,8.78-3.03,3.05-4.95,5.43-7.85,9.01-3.25,4.02-4.9,6.07-5.77,8.31-.65,1.66-2.4,6.13-.93,10.86,1.11,3.54,2.82,3.39,3.93,6.93.79,2.55.27,3.82-.46,10.17-.21,1.79-.53,4.49-.73,7.48h.01c-1.53,1.36-4.01,3.91-5.74,7.87-1.33,3.05-1.71,5.8-1.82,7.63-.97,3.56-1.65,6.5-2.09,8.57-.86,4.06-.84,4.77-1.62,6.26-1.74,3.31-3.54,2.95-5.56,6.25-1.48,2.43-.66,2.89-2.31,7.18-1.11,2.86-2.13,5.52-4.4,7.88-1.53,1.57-2.42,1.77-8.34,5.09-2.61,1.46-4.7,2.69-6.03,3.48,2.89,1.2,4.88,1.09,6.2.72.73-.2,1.39-.51,2.37-.37,1.46.21,1.93,1.18,3.25,1.75.74.32,1.84.54,3.42.18-1.39,1.31-2.79,2.44-4.33,3.49-3.74,2.55-5.99,3.3-11.32,7.39-4.16,3.18-7.26,6.13-8.09,6.93-3.19,3.07-3.64,3.95-8.55,9.01-3.84,3.96-3.54,3.41-6.23,6.24-2.91,3.05-6.25,6.59-9.71,11.55-.37.53-.77,1.11-1.19,1.75l-.22-.14Z"/><path class="cls-4" d="M154.4,224.46c.09.04.18.09.27.13.6.32,1.2.64,1.79.98.31.17.62.35.93.53.57.32,1.12.65,1.68.99.6.36,1.19.73,1.78,1.12.11.06.22.14.32.21.68.44,1.35.89,2,1.35.59.4,1.16.82,1.73,1.24.19.14.37.27.55.41.58.43,1.14.87,1.7,1.32.54.42,1.07.86,1.59,1.3.27.22.54.45.8.68.47.41.93.82,1.39,1.23,23.71,21.55,25.59,50.73,25.85,56.92-2.05.87-3.58,1.89-6.91,4.56-7.91,6.37-9.32,8.73-14.13,12.5-.56.44-1.41,1.09-2.51,1.85l-.08-.49c.61-3.06,1.09-7.2.63-12.06-.41-4.28-.86-9.02-4.18-13.39-1.18-1.55-5.04-6.62-9.79-6.08-3.34.38-5.44,3.35-8.03,7-1.65,2.33-3.25,4.65-3.4,8.03-.05,1.14-.17,3.88,1.47,6.24,1.06,1.53,1.99,1.66,3.01,3.4,1.04,1.77,1.14,3.46,1.24,4.54.21,2.35.75,5.84,2.28,10.88-3.14.79-5.91,1.14-11.77,3.39-1.71.65-5.22,2.32-12.26,5.64-6.96,3.28-9.61,4.67-13.91,6.51-.17.07-.34.15-.51.22h0c-7.98-.69-13.87.5-17.9,1.83-4.99,1.63-10.05,3.03-14.98,4.82-1.29.47-3.44,1.27-6.35,1.27-3.24,0-5.69-.98-7.62-1.78,0,0-4.9-2.02-8.88-5.58-4.41-3.94-12.8-15.61-15.74-31.74-5.01-27.39,8.22-53.72,13.4-62.9l-.16-.15c6.77-7.69,15.05-14.05,24.45-18.57,18.21-8.77,38.23-9.48,56.12-4.1.04,0,.07.02.11.03.45.14.91.28,1.36.43.43.14.87.28,1.3.43.34.11.68.23,1.02.35.29.1.58.21.87.32.61.22,1.22.45,1.82.69.07.03.13.05.2.08,2.55,1.01,5.04,2.15,7.46,3.42ZM159.43,257.04c.3-3.89-1.17-6.81-2.37-9.23-2.27-4.52-5.32-7.11-6.24-7.85-2.69-2.18-5.15-3.16-6.98-3.87-3.75-1.45-7.45-2.88-9.48-1.12-1.06.92-1.47,2.55-1.25,3.87.33,1.87,1.82,2.33,5.37,5.48,2.18,1.95,3.74,3.36,5.11,5.61.7,1.15,1.13,2.27,1.99,4.49,1.6,4.12,1.41,4.83,2.62,7.24,1.29,2.56,2.32,4.61,4.12,4.86,2.27.32,4.32-2.46,4.99-3.37,1.8-2.45,2.03-5.03,2.12-6.11ZM138.48,276.75c1.44-3.3.03-6.61-1.75-10.98-1.1-2.7-2.51-6.14-5.99-9.48-3.65-3.5-7.35-4.73-10.35-5.73-4.73-1.58-6.51-.95-7.23-.63-.59.27-2.7,1.34-3.24,3.62-.49,2.03.58,3.73.75,3.99,1.63,2.53,4.27,2.02,7.23,3.62,2.56,1.38,2.37,2.75,7.48,10.97,5.09,8.2,6.59,8.96,7.86,8.98,2.35.04,4.4-2.45,5.24-4.36ZM62.57,310.25c1.21-.23,1.83-2.94,1.8-4.96-.03-2.36-.95-3.68-2.03-6.09,0,0-2.06-4.6-2.7-9.24-.82-5.84,1.11-10.09.9-10.14-.26-.07-2.52,6.35-3.21,14.58-.42,4.98-.04,8.02,1.18,10.89.77,1.81,2.6,5.23,4.06,4.96Z"/><path class="cls-4" d="M285.54,215.71s-.03.06-.05.09c-.44.83-.97,1.75-1.6,2.77-1.38,2.26-2.52,3.86-3.28,4.92-4.44,6.22-7.53,8.82-16.18,17.82-6.07,6.32-6.46,7.02-10.44,10.86-5.11,4.91-7.73,7.4-10.86,9.01-4.58,2.35-6.47,1.8-10.86,4.91-1.63,1.17-4.04,2.91-6.14,5.94-1.89,2.73-1.69,3.86-3.89,7.17-2.51.06-6.48-.16-10.9-1.85-7.14-2.74-11.25-7.71-13.77-10.84-4.04-5.01-3.72-6.81-8.13-14.44-2.54-4.41-6.51-11.29-11.96-16.48-3.43-3.28-10.5-8.78-23.08-11.13-2.42-1.27-4.91-2.41-7.46-3.42-.07-.03-.13-.05-.2-.08l.2-.5c.08-.37.17-.82.29-1.34.06-.26.13-.53.2-.82s.14-.6.22-.92c.26-1.01.58-2.15.96-3.43.11-.36.23-.73.35-1.11,3.29-10.32,11.06-27.46,28.84-40.14,12.16-8.67,24.85-12.31,36-13.46.09-.01.19-.02.28-.02.66-.07,1.31-.13,1.95-.18.47-.04.94-.07,1.41-.09.38-.03.74-.05,1.11-.06.63-.03,1.26-.05,1.87-.06.44-.02.88-.02,1.31-.02,13.38-.12,23.23,2.94,24.86,3.47.65.21,1.29.43,1.92.66,2.5.91,4.76,1.89,6.23,2.56.28.13.53.25.75.35.13.05.26.12.39.18.11.05.21.1.31.15l.12.06c.12.06.24.12.35.17.29.15.59.3.87.45,2.02,1.06,3.73,2.09,5.11,2.97,3.75,3.47,8.1,8.23,12.04,14.49,7.73,12.25,10.06,24.17,10.86,31.39ZM271.04,228.04c3-3.14,2.39-7.6,2.18-9.16-.23-1.65-.76-5.59-4.22-8.14-3.23-2.39-7.42-2.39-10.32-1.16-2.34.99-2.15,2.07-5.38,4.36-4.17,2.95-5.56,1.91-8.44,4.07-5.49,4.13-5.66,11.9-5.67,12.36-.04,4.63,1.95,7.88,2.77,9.16,1.04,1.65,2.79,4.42,4.79,4.21,1.94-.19,3.14-3.05,3.93-4.94,1.81-4.31.61-6.11,2.47-8.14,2.07-2.25,5.54-2.2,5.96-2.18,3.41.1,4.25,2.32,7.27,2.03,2.53-.24,4.22-2.01,4.66-2.47Z"/><path class="cls-4" d="M334.03,41.69l.07.08c-.48,1.4-.92,3.01-1.24,4.8-.71,3.99-.54,7.46-.18,10.06l-.03.06c-2.7-1.28-5.38-2.56-8.07-3.83,0-1.56.07-3.28.27-5.13.18-1.64.43-3.15.71-4.53l.41.08c.85.42,1.77.63,2.55.68,2.03.11,4.07-.87,5.51-2.27Z"/><path class="cls-4" d="M327.52,33.5c.73-2.36,1.6-4.2,2.31-5.52,1.5-2.79,2.18-3.01,2.58-3.02.44-.02,1.22.79,2.76,2.4,1.33,1.39,1.99,2.09,2.13,2.58.3.99.03,1.88-.44,3.47-.34,1.14-.75,2.05-1.07,2.67l-.22.12c-.47-.84-1.23-1.39-1.65-1.69-1.72-1.24-4.2-1.64-6.34-.85l-.06-.16Z"/></g><g id="Layer_10"><path class="cls-5" d="M341.35,60.73c.53,10.99-1.52,19.56-3.21,24.8-1.84,5.73-4.02,12.48-10.04,19.09-6.53,7.16-14.07,10.27-18.13,11.61,4.67-21.25,9.33-42.51,14-63.77,5.79,2.76,11.59,5.51,17.38,8.27Z"/></g><g id="Layer_4"><path class="cls-3" d="M343.12,44.77c-2.49-2.83-5.1-4.62-6.95-5.7l-.29-.1c.2-.62.26-1.23.16-1.81,1.64.98,3.85,2.5,6.14,4.76,1.54,1.52,4.31,4.3,6.38,8.85,1.76,3.86,2.19,7.17,2.56,10.17.44,3.68.34,6.66.18,9.23-.24,3.74-.57,8.9-1.76,15.13-.94,4.94-2.41,10.54-4.8,16.63-.84,2.13-2.09,5.1-3.87,8.58,3.95-10.19,6.29-19.22,7.72-26.54.45-2.27.8-4.37,1.09-6.29.94-6.23,1.96-15.75-1.33-24.16-1.94-4.95-4.97-8.44-5.23-8.75Z"/><path class="cls-3" d="M335.67,36.15c.17.3.3.63.37,1.01.1.58.04,1.19-.16,1.81-.3.94-.93,1.88-1.75,2.68-1.44,1.39-3.48,2.38-5.51,2.26-.89-.05-1.96-.33-2.91-.86-.95-.55-1.77-1.37-2.15-2.51-.83-2.49,1-4.94,2.53-6.08.5-.37,1.03-.65,1.59-.84,2.14-.79,4.61-.4,6.34.84.41.31,1.17.86,1.65,1.69Z"/><path class="cls-3" d="M300.97,169.27c.39-2.57.77-5.17,1.12-7.82.25-1.88.49-3.75.72-5.59,1.32.96,3.31,2.16,5.94,2.98,2.27.7,4.27.88,5.75.9.11-3.71.21-7.42.32-11.14,2.77.29,5.52.58,8.29.88,1.23-5.08,2.45-10.15,3.68-15.23.24,4.69.92,10.19,2.48,16.2.74,2.85,1.59,5.48,2.48,7.87l.04.03c-1.07,1.27-1.91,2.4-2.58,3.29-3.91,5.22-7.78,12.62-9.59,17.01-.21.49-.65,1.58-1.46,2.91-2.03,3.32-4.57,5.18-5.81,6.1-3.48,2.57-6.84,5.29-10.32,7.85-4.61,3.38-7.69,5.64-9.69,7.44-2-4.21-11.52-23.12-32.72-35.03.37-.92.92-2.07,1.77-3.28.8-1.15,1.64-2.04,2.37-2.7.81.92,1.75,1.88,2.81,2.84,2.06,1.88,4.09,3.31,5.9,4.4.64-2.8,1.27-5.58,1.9-8.37l.14.03c1.56,1.71,3.41,3.56,5.57,5.42,2.41,2.09,4.76,3.79,6.9,5.17l.18-.28c.4-1.57.77-3.34,1.05-5.27.29-2.09.43-4.03.46-5.76h.01c1.29,1.19,2.7,2.4,4.23,3.62,2.8,2.21,5.52,4.03,8.06,5.53Z"/><path class="cls-3" d="M306.18,113.25c.26,7.02-1.45,9.32-2.36,10.29-2.8,2.99-7.19,3.12-10.13,3.21-4.77.14-8.49-1.28-10.46-2.2,3.42-6.74,6.31-12.11,8.27-15.69,3.58-6.54,5.78-10.23,8.77-16.05,4.8,8.72,5.75,16.12,5.91,20.44Z"/><path class="cls-3" d="M272.85,218.62c.21,1.56.82,6.02-2.18,9.17-.44.45-2.13,2.22-4.65,2.47-3.02.29-3.86-1.94-7.27-2.04-.43,0-3.9-.07-5.96,2.18-1.87,2.03-.67,3.84-2.47,8.14-.8,1.9-2,4.75-3.93,4.95-2,.2-3.75-2.57-4.8-4.22-.81-1.28-2.8-4.52-2.76-9.16,0-.45.18-8.22,5.67-12.36,2.87-2.16,4.26-1.12,8.43-4.07,3.23-2.29,3.04-3.37,5.38-4.36,2.9-1.23,7.1-1.22,10.33,1.16,3.45,2.55,3.99,6.49,4.21,8.14Z"/><path class="cls-3" d="M259.95,128.94c-1.75,6.26-5.85,10.12-9.28,9.79-1.82-.18-3.35-1.53-3.71-1.86-2.13-1.96-2.56-4.63-2.87-6.75-.66-4.51-1.29-8.93-1.91-13.62,1.74,1.49,3.62,3,5.63,4.51,4.27,3.21,8.38,5.81,12.14,7.93Z"/><path class="cls-3" d="M173.42,298.98c.46,4.85-.03,9-.64,12.06l.08.49c-2.42,1.69-6.06,3.97-10.59,5.92-2.61,1.13-4.5,1.71-6.26,2.15-1.52-5.05-2.07-8.54-2.28-10.89-.09-1.08-.19-2.76-1.24-4.54-1.02-1.74-1.95-1.86-3-3.39-1.64-2.37-1.52-5.1-1.47-6.25.15-3.37,1.75-5.7,3.39-8.02,2.59-3.66,4.69-6.62,8.04-7,4.75-.54,8.6,4.52,9.78,6.07,3.33,4.37,3.78,9.11,4.19,13.4Z"/><path class="cls-3" d="M156.69,247.56c1.21,2.41,2.67,5.33,2.37,9.23-.08,1.08-.31,3.66-2.12,6.11-.67.91-2.71,3.68-4.99,3.36-1.79-.25-2.82-2.29-4.11-4.86-1.22-2.41-1.02-3.11-2.62-7.23-.87-2.23-1.3-3.34-2-4.49-1.37-2.26-2.92-3.67-5.11-5.61-3.54-3.16-5.04-3.61-5.36-5.49-.23-1.31.18-2.94,1.25-3.87,2.03-1.76,5.72-.33,9.47,1.13,1.84.71,4.29,1.68,6.99,3.86.92.74,3.97,3.33,6.23,7.86Z"/><path class="cls-3" d="M136.36,265.52c1.79,4.36,3.2,7.67,1.75,10.97-.84,1.91-2.89,4.4-5.24,4.36-1.27-.02-2.77-.78-7.85-8.97-5.11-8.23-4.93-9.6-7.49-10.98-2.96-1.59-5.6-1.08-7.23-3.61-.17-.27-1.23-1.97-.75-4,.55-2.27,2.65-3.34,3.25-3.61.71-.33,2.49-.96,7.23.62,3,1,6.7,2.24,10.35,5.74,3.47,3.33,4.88,6.78,5.98,9.48Z"/><path class="cls-3" d="M56.96,294.15c.69-8.24,2.95-14.65,3.21-14.59.22.05-1.71,4.3-.9,10.14.65,4.64,2.71,9.25,2.71,9.25,1.07,2.41,1.99,3.72,2.03,6.08.02,2.02-.6,4.73-1.81,4.96-1.45.28-3.28-3.15-4.05-4.96-1.23-2.87-1.6-5.91-1.19-10.88Z"/><path class="cls-1" d="M69.09,353.16s-.08-.07-.13-.1c-1.62-1.34-8.35-7.09-14.92-16.65-7.73-11.23-15.25-27.7-14.07-48.42,1.6-28.32,18.81-53.41,43.8-65.44,18.26-8.79,38.32-9.49,56.24-4.07,2.16.65,4.28,1.39,6.37,2.22,8.93,3.53,17.17,8.61,24.18,14.99,23.72,21.56,25.59,50.73,25.85,56.93"/><path class="cls-1" d="M146.58,220.2c.32-1.53.94-4.3,2.09-7.85,3.34-10.33,11.11-27.32,28.76-39.91,12.16-8.68,24.87-12.31,36.01-13.46,3.21-.33,6.28-.46,9.17-.44,12.75.08,22.04,2.97,23.61,3.48,4.91,1.61,9.37,3.62,13.4,5.9,21.2,11.91,30.72,30.82,32.72,35.03.02.05.05.1.07.15"/><path class="cls-1" d="M139.83,218.67c.06-.06.12-.13.18-.19.97-1.01,2.21-2.13,3.71-3.23,1.8-1.31,3.51-2.25,4.95-2.9.03-.02.05-.03.08-.04"/><path class="cls-1" d="M97.82,253.64c-2.1-1.07-3.42-3.17-3.38-5.41.03-2.06,1.19-4.38,3.38-5.19,1.46-.54,2.82-.18,3.38,0"/><path class="cls-1" d="M123.74,228.62c-.71-1.93-.36-3.98.9-5.19,1.11-1.06,2.57-1.11,2.93-1.12,1.97-.08,3.31,1.08,3.61,1.35"/><path class="cls-1" d="M60.17,279.56c-.26-.06-2.52,6.35-3.21,14.59-.41,4.97-.04,8.01,1.19,10.88.77,1.81,2.6,5.24,4.05,4.96,1.21-.23,1.83-2.94,1.81-4.96-.04-2.36-.96-3.67-2.03-6.08,0,0-2.06-4.61-2.71-9.25-.81-5.84,1.12-10.09.9-10.14Z"/><path class="cls-1" d="M110.3,257.29c1.63,2.53,4.27,2.02,7.23,3.61,2.56,1.38,2.38,2.75,7.49,10.98,5.08,8.19,6.58,8.95,7.85,8.97,2.35.04,4.4-2.45,5.24-4.36,1.45-3.3.04-6.61-1.75-10.97-1.1-2.7-2.51-6.15-5.98-9.48-3.65-3.5-7.35-4.74-10.35-5.74-4.74-1.58-6.52-.95-7.23-.62-.6.27-2.7,1.34-3.25,3.61-.48,2.03.58,3.73.75,4Z"/><path class="cls-1" d="M143.22,249.68c-1.37-2.26-2.92-3.67-5.11-5.61-3.54-3.16-5.04-3.61-5.36-5.49-.23-1.31.18-2.94,1.25-3.87,2.03-1.76,5.72-.33,9.47,1.13,1.84.71,4.29,1.68,6.99,3.86.92.74,3.97,3.33,6.23,7.86,1.21,2.41,2.67,5.33,2.37,9.23-.08,1.08-.31,3.66-2.12,6.11-.67.91-2.71,3.68-4.99,3.36-1.79-.25-2.82-2.29-4.11-4.86-1.22-2.41-1.02-3.11-2.62-7.23-.87-2.23-1.3-3.34-2-4.49Z"/><path class="cls-1" d="M172.78,311.04c.61-3.06,1.1-7.21.64-12.06-.41-4.29-.86-9.03-4.19-13.4-1.18-1.55-5.03-6.61-9.78-6.07-3.35.38-5.45,3.34-8.04,7-1.64,2.32-3.24,4.65-3.39,8.02-.05,1.15-.17,3.88,1.47,6.25,1.05,1.53,1.98,1.65,3,3.39,1.05,1.78,1.15,3.46,1.24,4.54.21,2.35.76,5.84,2.28,10.89.01.03.02.05.03.08"/><path class="cls-1" d="M202.04,201.47c2.72-.52,7.4-1.04,12.94.29.51.12,1,.25,1.48.4,6.54,1.92,10.81,5.56,12.77,7.45"/><path class="cls-1" d="M216.87,193.18c-.39,2.03-.79,5.2-.41,8.98.21,2.04.64,4.27,1.43,6.58.99,2.88,2.29,5.21,3.49,6.98"/><path class="cls-1" d="M238.83,230.11c0-.45.18-8.22,5.67-12.36,2.87-2.16,4.26-1.12,8.43-4.07,3.23-2.29,3.04-3.37,5.38-4.36,2.9-1.23,7.1-1.22,10.33,1.16,3.45,2.55,3.99,6.49,4.21,8.14.21,1.56.82,6.02-2.18,9.17-.44.45-2.13,2.22-4.65,2.47-3.02.29-3.86-1.94-7.27-2.04-.43,0-3.9-.07-5.96,2.18-1.87,2.03-.67,3.84-2.47,8.14-.8,1.9-2,4.75-3.93,4.95-2,.2-3.75-2.57-4.8-4.22-.81-1.28-2.8-4.52-2.76-9.16Z"/><path class="cls-1" d="M252.06,191.58c-.17-2.68-.74-6.8-2.75-11.4-.05-.13-.1-.25-.16-.38-2.42-5.37-5.73-8.94-7.85-10.9"/><path class="cls-1" d="M236.65,178.35c3.49,1.55,6.35,1.95,8.29,2.03,1.69.07,3.05-.07,4.37-.2,1.71-.15,3.35-.27,5.51.2,2.29.5,4.03,1.4,5.09,2.04"/><path class="cls-1" d="M320.52,69.89c-.08-.02-.16-.05-.26-.07-5.6-1.63-33.14-8.86-60.65,7.01-23.23,13.4-31.74,34.79-33.82,40.52-5.04,13.95-5.02,26.55-4.12,34.88.28,2.49.63,4.6.94,6.25"/><path class="cls-1" d="M213.43,158.89c.58-1.04,1.68-2.69,3.56-4.18,1.78-1.42,3.53-2.13,4.68-2.48l.18-.06"/><path class="cls-1" d="M259.95,128.94c-3.76-2.12-7.87-4.72-12.14-7.93-2.01-1.51-3.89-3.02-5.63-4.51-3.06-2.63-5.73-5.21-8.04-7.64"/><path class="cls-1" d="M242.07,115.61c.04.3.08.6.11.89.62,4.69,1.25,9.11,1.91,13.62.31,2.12.74,4.79,2.87,6.75.36.33,1.89,1.68,3.71,1.86,3.43.33,7.53-3.53,9.28-9.79"/><path class="cls-1" d="M283.23,124.55c3.42-6.74,6.31-12.11,8.27-15.69,3.58-6.54,5.78-10.23,8.77-16.05.28-.53.56-1.09.85-1.66,2.28-4.53,4-8.28,5.06-10.63"/><path class="cls-1" d="M300.1,92.5c.06.1.12.21.17.31,4.8,8.72,5.75,16.12,5.91,20.44.26,7.02-1.45,9.32-2.36,10.29-2.8,2.99-7.19,3.12-10.13,3.21-4.77.14-8.49-1.28-10.46-2.2"/><path class="cls-1" d="M324.06,52.52c-1.27,5.76-2.53,11.53-3.8,17.3-3.4,15.49-6.8,30.98-10.2,46.47"/><path class="cls-1" d="M310.06,116.29c4.06-1.34,11.6-4.46,18.13-11.62,6.02-6.6,8.2-13.35,10.04-19.09.67-2.07,1.39-4.67,2-7.74.91-4.67,1.53-10.43,1.21-17.06"/><path class="cls-1" d="M324.06,52.52c.21.1.41.2.62.29l8.07,3.84c2.9,1.38,5.79,2.75,8.69,4.13"/><path class="cls-1" d="M329.12,59.26c-.67,1.24-1.35,2.48-2.02,3.72"/><path class="cls-1" d="M332.33,63.99c-2.87,5.17-5.74,10.35-8.61,15.52"/><path class="cls-1" d="M334.86,74.62c-3.71,6.52-7.42,13.04-11.14,19.57"/><path class="cls-1" d="M336.04,37.16c.1.58.04,1.19-.16,1.81-.3.94-.93,1.88-1.75,2.68-1.44,1.39-3.48,2.38-5.51,2.26-.89-.05-1.96-.33-2.91-.86-.95-.55-1.77-1.37-2.15-2.51-.83-2.49,1-4.94,2.53-6.08.5-.37,1.03-.65,1.59-.84,2.14-.79,4.61-.4,6.34.84.41.31,1.17.86,1.65,1.69.17.3.3.63.37,1.01Z"/><path class="cls-1" d="M336.17,39.07c1.85,1.08,4.46,2.87,6.95,5.7.26.31,3.29,3.8,5.23,8.75,3.29,8.41,2.27,17.93,1.33,24.16-.29,1.92-.64,4.02-1.09,6.29-1.43,7.32-3.77,16.35-7.72,26.54-.16.44-.33.88-.51,1.32"/><path class="cls-1" d="M332.78,56.58c-.36-2.59-.53-6.07.17-10.05.32-1.8.77-3.41,1.25-4.81"/><path class="cls-1" d="M324.68,52.93v-.12c-.01-1.55.07-3.27.27-5.13.17-1.64.42-3.16.71-4.53"/><path class="cls-1" d="M327.62,33.45c.73-2.35,1.6-4.2,2.31-5.51,1.5-2.79,2.18-3.02,2.58-3.03.44,0,1.22.79,2.76,2.4,1.32,1.39,1.99,2.1,2.13,2.58.29,1,.03,1.88-.44,3.47-.34,1.15-.76,2.06-1.07,2.67"/><path class="cls-1" d="M340.18,111.83c.24-.45.47-.89.69-1.32,1.78-3.48,3.03-6.45,3.87-8.58,2.39-6.09,3.86-11.69,4.8-16.63,1.19-6.23,1.52-11.39,1.76-15.13.16-2.57.26-5.55-.18-9.23-.37-3-.8-6.31-2.56-10.17-2.07-4.55-4.84-7.33-6.38-8.85-2.29-2.26-4.5-3.78-6.14-4.76"/><path class="cls-1" d="M339.98,77.68c.08.05.16.1.25.16,1.35.87,2.77,1.82,4.22,2.89,1.49,1.09,2.87,2.17,4.14,3.24l.33.27"/><path class="cls-1" d="M350.06,85.39c3.4,2.98,7.41,7.02,11.32,12.26.54.74,1.07,1.47,1.57,2.19.61.88,1.18,1.75,1.72,2.61,2.08,3.25,3.71,6.31,4.98,9.02.1.22.19.43.29.64"/><path class="cls-1" d="M373.54,99c.07.77.14,2,0,3.49-.4,4.13-2.01,5.95-3.89,8.98-.96,1.53-1.98,3.38-2.94,5.99-1.01,2.72-1.36,4.65-3.35,6.4-1.36,1.19-1.79.81-3.92,2.18-3.13,2-4.91,4.55-6.4,6.68-1.47,2.12-2.29,3.84-2.47,4.22-1.37,2.93-1.45,4.51-2.03,6.1-1.37,3.74-4.56,4.87-8.72,7.85-3.53,2.52-6.13,5.21-8.03,7.46-1.07,1.27-1.91,2.4-2.58,3.29-3.91,5.22-7.78,12.62-9.59,17.01-.21.49-.65,1.58-1.46,2.91-2.03,3.32-4.57,5.18-5.81,6.1-3.48,2.57-6.84,5.29-10.32,7.85-4.61,3.38-7.69,5.64-9.69,7.44-1.01.91-1.74,1.7-2.26,2.46-2.6,3.84-2.25,5.86-6.55,12.91-1.38,2.25-2.53,3.86-3.28,4.91-4.45,6.22-7.54,8.83-16.18,17.82-6.08,6.32-6.46,7.03-10.45,10.86-5.11,4.92-7.73,7.41-10.86,9.01-4.57,2.35-6.47,1.81-10.85,4.92-1.64,1.16-4.05,2.9-6.15,5.94-1.88,2.73-1.68,3.85-3.89,7.17-2.05,3.09-4.17,5.04-4.71,5.53-1.01.91-4.49,3.91-10.04,5.73-5.05,1.67-6.34.55-10.71,2.41-2.04.86-3.57,1.88-6.9,4.56-7.92,6.37-9.33,8.72-14.13,12.49-.56.44-1.41,1.09-2.52,1.86-2.42,1.69-6.06,3.97-10.59,5.92-2.61,1.13-4.5,1.71-6.26,2.15-3.13.79-5.9,1.14-11.77,3.39-1.7.65-5.22,2.31-12.25,5.63-7.91,3.73-10.26,5.02-15.79,7.31-4.95,2.05-4.5,1.61-8.18,3.21-8.83,3.84-8.92,5.25-15.28,7.74-4.62,1.81-8.89,2.75-14.44,3.98-5.33,1.17-7.01,1.22-9.34,2.2-.36.15-.73.32-1.13.52-2.11,1.06-3.53,2.16-6.17,2.41-.98.09-3.63.34-5.96-1.26-1.02-.7-1.73-1.58-2.23-2.5-.65-1.17-.98-2.4-1.23-3.36-1.41-5.4.49-10.19,1.47-12.24"/><path class="cls-1" d="M52.76,351.9c.1.18.2.36.31.55,2.03,3.62,5.63,8.87,11.7,13.08,4.78,3.32,9.1,4.57,17.56,6.93,7.56,2.12,13.92,3.9,22.87,4.39,3.14.18,13.06.55,25.18-2.31,5.3-1.25,3.31-1.3,16.17-5.08,8.49-2.5,12.66-4.19,15.02-5.54,7.41-4.26,12.79-10.43,14.55-12.48,3.15-3.66,4.62-6.23,8.78-9.01,2.23-1.48,4.2-2.33,7.39-3.69,5.37-2.29,7.77-2.72,11.78-4.16,6.16-2.21,10.46-4.75,14.56-7.16,5.59-3.3,5.42-3.92,13.63-9.01,4.33-2.7,6.57-4.07,9.7-5.55,4.88-2.3,9.03-3.54,12.7-4.62,7.49-2.2,8.54-1.74,12.25-3.46,3.22-1.5,5.87-3.46,9.7-7.16,2.28-2.21,7.67-7.63,21.02-27.95,5.62-8.56,6.84-10.9,7.39-14.33.37-2.25.52-5.38,2.08-9.7.99-2.72,2.15-4.84,3.01-6.24"/><path class="cls-1" d="M305.02,255.34c2.11-4.19,4.2-7.44,5.78-9.7,3.46-4.95,6.8-8.49,9.7-11.55,2.69-2.83,2.4-2.27,6.24-6.24,4.9-5.06,5.36-5.94,8.55-9.01.82-.79,3.92-3.74,8.08-6.93,5.34-4.08,7.58-4.84,11.32-7.39,5.75-3.92,9.68-9.01,17.56-19.17,4.77-6.17,7.19-9.32,8.31-12.48,2.41-6.73,2.07-13.66,1.85-18.25-.26-5.39-.93-5.61-.92-10.85.01-4.86.6-9.91.92-12.71.74-6.34,1.26-7.61.46-10.16-1.1-3.54-2.82-3.39-3.92-6.93-1.48-4.73.27-9.21.92-10.86.88-2.24,2.52-4.3,5.78-8.32,2.89-3.58,4.82-5.95,7.85-9.01,4.7-4.73,6.55-5.54,7.62-8.78.83-2.48,1.06-6.04-.46-6.93-.51-.3-1.73-.59-6.01,2.54-4.89,3.59-8.28,7.64-10.85,11.09-3.83,5.14-4.5,7.18-8.09,10.17-2.08,1.73-3.89,2.74-4.85,3.23-2.99,1.54-5.72,2.22-7.62,2.54"/><path class="cls-1" d="M365.09,102.18s3.4-1.28,3.41-1.28c.03-.01,5.01-1.89,5.04-1.9"/><path class="cls-1" d="M343.79,198.75c1.33-.79,3.42-2.02,6.02-3.47,5.93-3.32,6.82-3.53,8.34-5.1,2.28-2.35,3.3-5.01,4.4-7.88,1.65-4.28.83-4.74,2.32-7.18,2.01-3.29,3.81-2.94,5.56-6.25.78-1.48.76-2.2,1.62-6.25.44-2.07,1.11-5.02,2.08-8.57"/><path class="cls-1" d="M329.2,209.64c-3.08.71-5.39,1.73-6.95,2.55-3.25,1.69-4.48,3.16-7.18,3.24-1.95.05-3.18-.64-3.71,0-.63.77.42,2.69,1.39,4.17"/><path class="cls-1" d="M304.41,224.93c.93,2.77,1.85,5.55,2.78,8.33"/><path class="cls-1" d="M237.01,295.34c.98-.32,2.5-.74,4.4-.92,4.22-.42,6.21.72,9.73,1.15,1.38.17,7.86.98,12.97-2.31,2.27-1.47,2.15-2.38,6.71-7.18,2.44-2.56,4.58-4.52,6.03-5.79"/><path class="cls-1" d="M218.24,308.08c-.93.71-2.31,1.5-3.93,1.39-2-.14-3-1.56-4.41-1.16-.67.2-1.45.81-2.08,2.55"/><path class="cls-1" d="M200.18,320.82c-.39,2.4-.78,4.79-1.16,7.18"/><path class="cls-1" d="M191.61,316.65c-.53,2.71-.87,5.92-.7,9.5.05.96.13,1.89.23,2.78"/><path class="cls-1" d="M85.52,361.13c.79.89,2.09,2.06,3.94,2.54,2.66.7,3.71-.76,6.48-.23,2.7.52,3,2.16,6.02,3.24,2.38.86,4.59.7,6.03.47"/><path class="cls-1" d="M331.75,158.32c-.89-2.39-1.74-5.02-2.48-7.87-1.56-6.01-2.24-11.51-2.48-16.2"/><path class="cls-1" d="M323.01,149.9c.03-.14.07-.28.1-.42,1.23-5.08,2.45-10.15,3.68-15.23"/><path class="cls-1" d="M314.5,148.57c.11,0,.21.02.32.03,2.77.29,5.52.58,8.29.88.13,0,.25.03.38.04"/><path class="cls-1" d="M314.5,159.84v-.1c.11-3.71.21-7.42.32-11.14.01-.19.01-.37.02-.56"/><path class="cls-1" d="M314.74,159.74h-.24c-1.48-.02-3.48-.2-5.75-.9-2.63-.82-4.62-2.02-5.94-2.98-.12-.08-.23-.17-.34-.25"/><path class="cls-1" d="M300.95,169.4s.01-.09.02-.13c.39-2.57.77-5.17,1.12-7.82.25-1.88.49-3.75.72-5.59.01-.12.03-.23.04-.35"/><path class="cls-1" d="M288.68,160.12c1.29,1.19,2.7,2.4,4.23,3.62,2.8,2.21,5.52,4.03,8.06,5.53.07.04.15.09.22.13"/><path class="cls-1" d="M287.16,171.15c.4-1.57.77-3.34,1.05-5.27.29-2.09.43-4.03.46-5.76.01-.13.01-.26.01-.38"/><path class="cls-1" d="M274.51,160.84c1.56,1.71,3.41,3.56,5.57,5.42,2.41,2.09,4.76,3.79,6.9,5.17.08.05.15.1.23.15"/><path class="cls-1" d="M272.42,169.4c.02-.07.03-.15.05-.22.64-2.8,1.27-5.58,1.9-8.37.02-.07.03-.14.05-.21"/><path class="cls-1" d="M263.53,161.69c.07.08.14.16.23.25.81.92,1.75,1.88,2.81,2.84,2.06,1.88,4.09,3.31,5.9,4.4.07.05.13.08.19.12"/><path class="cls-1" d="M259.58,168.02s.03-.07.04-.1c.37-.92.92-2.07,1.77-3.28.8-1.15,1.64-2.04,2.37-2.7.12-.11.23-.21.34-.3"/><path class="cls-1" d="M78.15,72.24c.35.14.7.28,1.04.42,5.12,2.11,9.06,4.24,11.75,5.82,4.6,2.71,5.96,4.08,10.82,6.55,3.08,1.58,4.18,1.87,9.84,4.27,8.2,3.48,7.75,3.66,12.46,5.57,8.87,3.61,11.5,3.39,22.63,7.55,3.56,1.33,6.42,2.51,8.2,3.28"/><path class="cls-1" d="M87.21,145.63c4.58-1.65,8.29-3.27,10.94-4.49,6.69-3.1,11.77-6.12,16.61-8.99,3.28-1.95,6.4-3.9,8.6-5.28,5.73-3.59,6.52-4.22,9.39-5.86,5.64-3.25,6.82-3.23,10.35-5.28,1.66-.96,3.65-2.27,5.82-4.09,1.89-1.57,3.91-3.52,5.97-5.94"/><path class="cls-1" d="M151.12,115.53c-1.98,1.88-5.01,4.57-8.99,7.43-3.43,2.46-4.38,2.76-11.14,6.84-11.09,6.68-11.52,7.68-17.98,10.95-3.8,1.92-4.73,2.12-8.21,4.1-4.24,2.41-5.87,3.82-9.77,5.86-3.16,1.65-5.88,2.71-7.63,3.33"/><path class="cls-1" d="M73.53,78.98c1.31.78,2.57,1.51,3.8,2.21,4.1,2.32,7.72,4.17,10.66,5.61,4.99,2.44,9.07,4.18,12.12,5.48,1.73.73,3.26,1.36,12.11,4.88,5.95,2.36,8.92,3.55,11.34,4.5,5.71,2.24,14.13,5.5,25.02,9.57"/><path class="cls-1" d="M72.16,81.92c-.07,4.67-.15,11.33-.2,19.35-.05,9.62-.07,14.43,0,19.74.18,12.48.67,12.97,1.37,32.05.41,11.11.32,12.91.78,23.45.34,7.68.71,13.98.98,18.18"/><path class="cls-1" d="M80.95,190.39c-.16-4.41-.45-11.61-.97-20.52-1.1-18.84-1.82-21.55-1.96-32.64-.14-11.56.6-11.78.2-23.06-.29-8.12-.8-11.43-.98-19.55-.12-5.11-.05-9.65.09-13.43.08-2.34.19-4.39.3-6.11"/><path class="cls-1" d="M351.64,247.46c-4.66,6.33-9,10.99-12.11,14.07-5.8,5.75-9.37,8.07-17.2,15.05-5.68,5.06-10.08,9.43-12.9,12.31"/><path class="cls-1" d="M309.43,288.89c2.55.83,6.32,2.14,10.75,4.11,3.84,1.7,6.22,3.03,8.99,4.49,2.79,1.48,13.16,7.01,24.43,11.53,2.98,1.2,7.1,2.79,12.12,4.5"/><path class="cls-1" d="M294.38,366.88c3.63-3.11,8.69-7.38,14.85-12.32,11.84-9.49,21.18-16.23,30.69-23.06,6.76-4.87,15.48-11.01,25.8-17.98"/><path class="cls-1" d="M306.5,365.7c6.44-5.75,12-10.06,15.83-12.9,8.8-6.51,11.3-7.34,29.71-19.74,6.41-4.32,10.5-7.18,15.04-10.55,5.2-3.85,9.4-7.2,12.32-9.58"/><path class="cls-1" d="M322.52,287.72c1.39.48,3.19,1.13,5.28,1.95,1.56.63,5.35,2.14,9.58,4.3,6.45,3.31,5.86,4,10.75,6.26,1.1.51,4.01,1.52,9.77,3.52,8.08,2.8,8.66,2.94,10.55,3.71,2.62,1.06,6.45,2.78,10.95,5.47"/><path class="cls-1" d="M322.52,287.72c3.32-2.81,7.78-6.7,12.9-11.53,5.48-5.17,9.4-9.23,13.88-13.88,4.05-4.2,9.27-9.74,15.24-16.42"/></g></svg>